<?xml version="1.0" encoding="utf-8"?>
<!-- Generator: Adobe Illustrator 16.0.0, SVG Export Plug-In . SVG Version: 6.00 Build 0)  -->
<!DOCTYPE svg PUBLIC "-//W3C//DTD SVG 1.1//EN" "http://www.w3.org/Graphics/SVG/1.1/DTD/svg11.dtd">
<svg version="1.1" xmlns="http://www.w3.org/2000/svg" xmlns:xlink="http://www.w3.org/1999/xlink" x="0px" y="0px" width="864px"
	 height="634.396px" viewBox="0 0 864 634.396" enable-background="new 0 0 864 634.396" xml:space="preserve">
<g id="Layer_2">
</g>
<g id="Layer_1">
	<path fill="none" d="M863.869,172.439c-66.342-16.267-252.279-62.346-350.823-91.736
		c-121.323-36.184-32.527,105.923-122.822,126.704c-90.296,20.782-81.772-80.06-177.151-120.214
		C158.889,64.382,68.347,95.216,0.244,126.105v363.894h863.625V172.439z"/>
	<g display="none">
	</g>
	<g>
		<defs>
			<polyline id="SVGID_1_" points="0,-0.604 864,-0.604 864,634.396 0,634.396 0,-0.604 			"/>
		</defs>
		<clipPath id="SVGID_2_">
			<use xlink:href="#SVGID_1_"  overflow="visible"/>
		</clipPath>
		<rect y="-0.604" clip-path="url(#SVGID_2_)" fill-rule="evenodd" clip-rule="evenodd" fill="#FFFFFF" width="863" height="635"/>
		<linearGradient id="SVGID_3_" gradientUnits="userSpaceOnUse" x1="429.8921" y1="0.396" x2="429.8921" y2="490.3965">
			<stop  offset="0" style="stop-color:#FFFFFF"/>
			<stop  offset="1" style="stop-color:#29ABE2"/>
		</linearGradient>
		<rect x="-15.296" y="0.396" opacity="0.7" clip-path="url(#SVGID_2_)" fill="url(#SVGID_3_)" width="890.377" height="490"/>
		<path opacity="0.2" clip-path="url(#SVGID_2_)" fill="#FFFFFF" d="M-4,206.444c0,0,387.534-196.608,487.125,0
			c99.59,196.608,241.54,27.662,316.393,27.662c74.85,0,68.717,121.475,68.717,121.475v194.895H-4V206.444z"/>
		<path opacity="0.31" clip-path="url(#SVGID_2_)" fill="#FFFFFF" d="M-5.015,88.578c0,0,388.277-199.299,488.058,0
			c99.782,199.299,242.005,28.041,317.002,28.041c74.992,0,68.849,123.138,68.849,123.138v250.89H-5.015V88.578z"/>
		<polygon clip-path="url(#SVGID_2_)" fill="#A57272" points="383.49,535.795 375.436,518.741 308.634,511.636 254.257,510.995 
			246.569,548.585 		"/>
		<rect x="-5" y="490.396" clip-path="url(#SVGID_2_)" fill="#3772D1" width="896" height="144"/>
		<ellipse clip-path="url(#SVGID_2_)" fill="#99E9FF" cx="585.306" cy="506.061" rx="10.739" ry="1.351"/>
		<g opacity="0.4" clip-path="url(#SVGID_2_)">
			<ellipse fill="#FFFFFF" cx="347.19" cy="549.128" rx="35.873" ry="2.124"/>
			<g opacity="0.6">
				<ellipse fill="#FFFFFF" cx="369.417" cy="512.927" rx="33.968" ry="1.352"/>
				<ellipse fill="#FFFFFF" cx="440.925" cy="549.128" rx="56.253" ry="2.124"/>
				<ellipse fill="#FFFFFF" cx="394.384" cy="599.103" rx="72.999" ry="3.086"/>
				<ellipse fill="#FFFFFF" cx="205.602" cy="600.435" rx="72.999" ry="3.086"/>
				<ellipse fill="#FFFFFF" cx="131.472" cy="573.13" rx="72.999" ry="3.086"/>
				<ellipse fill="#FFFFFF" cx="500.909" cy="577.333" rx="62.251" ry="2.633"/>
				<ellipse fill="#FFFFFF" cx="685.396" cy="577.333" rx="62.251" ry="2.633"/>
				<ellipse fill="#FFFFFF" cx="595.953" cy="545.17" rx="46.7" ry="1.974"/>
				<ellipse fill="#FFFFFF" cx="816.103" cy="511.714" rx="25.171" ry="1.975"/>
				<ellipse fill="#FFFFFF" cx="530.666" cy="523.829" rx="33.967" ry="1.35"/>
				<ellipse fill="#FFFFFF" cx="474.533" cy="506.045" rx="10.739" ry="1.351"/>
				<path fill="#FFFFFF" d="M31.337,543.782c-18.135,0-36.517,4.117-53.337,4.2l0,0c16.82,0.083,35.202,4.199,53.337,4.199
					c118.542,0,216.05-3.674,216.05-5.993S149.879,543.782,31.337,543.782z"/>
			</g>
		</g>
		<g clip-path="url(#SVGID_2_)">
			<defs>
				<rect id="SVGID_4_" x="-270" y="408.066" width="322.698" height="104.823"/>
			</defs>
			<clipPath id="SVGID_5_">
				<use xlink:href="#SVGID_4_"  overflow="visible"/>
			</clipPath>
			<g clip-path="url(#SVGID_5_)">
				<g>
					<g>
						<rect x="-105.65" y="465.425" fill="#FFC248" width="27.302" height="9.995"/>
						<polygon fill="#FFD357" points="-105.65,465.425 -84.26,465.425 -105.65,475.42 						"/>
						<rect x="-84.938" y="465.425" fill="#EF9F35" width="6.59" height="9.995"/>
					</g>
					<g>
						<rect x="-101.051" y="474.94" fill="#4997C1" width="27.773" height="10.483"/>
						<polygon fill="#58A2CC" points="-101.051,474.94 -79.292,474.94 -101.051,485.423 						"/>
						<rect x="-79.982" y="474.94" fill="#4282AD" width="6.704" height="10.483"/>
					</g>
					<g>
						<rect x="-97.35" y="484.535" fill="#E04477" width="27.773" height="10.481"/>
						<polygon fill="#F74686" points="-97.35,484.535 -75.591,484.535 -97.35,495.016 						"/>
						<rect x="-76.281" y="484.535" fill="#BC286B" width="6.704" height="10.481"/>
					</g>
					<rect x="-133.118" y="464.691" fill="#E04477" width="30.706" height="10.094"/>
					<polygon fill="#F74686" points="-133.118,464.691 -109.06,464.691 -133.118,474.785 					"/>
					<rect x="-109.823" y="464.691" fill="#BC286B" width="7.411" height="10.094"/>
					<rect x="-147.647" y="474.594" fill="#FFC248" width="28.719" height="10.093"/>
					<polygon fill="#FFD357" points="-147.647,474.594 -118.929,474.594 -147.647,484.687 					"/>
					<rect x="-121.444" y="474.594" fill="#EF9F35" width="3.813" height="10.093"/>
					<rect x="-153.838" y="484.535" fill="#9349B2" width="27.101" height="10.093"/>
					<polygon fill="#AA4CC1" points="-153.838,484.535 -129.408,484.535 -153.838,494.627 					"/>
					<rect x="-131.068" y="484.535" fill="#7C3596" width="8.077" height="10.093"/>
					<rect x="-129.408" y="484.535" fill="#E04477" width="23.946" height="10.093"/>
					<polygon fill="#F74686" points="-129.408,484.535 -105.462,484.535 -129.408,494.627 					"/>
					<rect x="-107.399" y="484.535" fill="#BC286B" width="5.303" height="10.093"/>
					<rect x="-120.19" y="474.594" fill="#9349B2" width="30.706" height="10.093"/>
					<polygon fill="#AA4CC1" points="-120.19,474.594 -89.484,474.594 -120.19,484.687 					"/>
					<rect x="-96.43" y="474.594" fill="#7C3596" width="7.605" height="10.093"/>
					<g>
						<path fill="#5E2575" d="M-95.723,474.999h6.495v9.283h-6.495V474.999z M-89.498,475.245h-5.956v8.792h5.956V475.245z"/>
					</g>
					<g>
						<path fill="#A82064" d="M-108.721,465.529h5.748v8.217h-5.748V465.529z M-103.211,465.746h-5.272v7.782h5.272V465.746z"/>
					</g>
					<g>
						<path fill="#D88623" d="M-84.294,466.041h5.569v8.525h-5.569V466.041z M-78.956,466.266h-5.106v8.073h5.106V466.266z"/>
					</g>
					<g>
						<path fill="#357396" d="M-79.229,475.493h5.568v8.524h-5.568V475.493z M-73.892,475.718h-5.107v8.074h5.107V475.718z"/>
					</g>
					<g>
						<path fill="#A82064" d="M-75.634,485.473h5.568v8.794h-5.568V485.473z M-70.296,485.706h-5.107v8.328h5.107V485.706z"/>
					</g>
					<rect x="-105.785" y="484.535" fill="#FFC248" width="26.618" height="10.093"/>
					<polygon fill="#FFD357" points="-105.785,484.535 -81.893,484.535 -105.785,494.627 					"/>
					<rect x="-83.117" y="484.535" fill="#EF9F35" width="5.784" height="10.093"/>
					<g>
						<rect x="-85.056" y="485.145" fill="#FCB73D" width="0.404" height="8.773"/>
						<rect x="-86.806" y="485.145" fill="#FCB73D" width="0.404" height="8.773"/>
						<rect x="-88.555" y="485.145" fill="#FCB73D" width="0.404" height="8.773"/>
						<rect x="-90.306" y="485.145" fill="#FCB73D" width="0.404" height="8.773"/>
						<rect x="-92.056" y="485.145" fill="#FCB73D" width="0.404" height="8.773"/>
						<rect x="-93.806" y="485.145" fill="#FCB73D" width="0.405" height="8.773"/>
						<rect x="-95.555" y="485.145" fill="#FCB73D" width="0.404" height="8.773"/>
						<rect x="-97.305" y="485.145" fill="#FCB73D" width="0.404" height="8.773"/>
						<rect x="-99.055" y="485.145" fill="#FCB73D" width="0.404" height="8.773"/>
						<rect x="-100.805" y="485.145" fill="#FCB73D" width="0.404" height="8.773"/>
						<rect x="-102.555" y="485.145" fill="#FCB73D" width="0.404" height="8.773"/>
						<rect x="-104.305" y="485.145" fill="#FCB73D" width="0.404" height="8.773"/>
					</g>
					<g>
						<rect x="-122.908" y="475.142" fill="#FCB73D" width="0.478" height="8.772"/>
						<rect x="-124.973" y="475.142" fill="#FCB73D" width="0.476" height="8.772"/>
						<rect x="-127.039" y="475.142" fill="#FCB73D" width="0.478" height="8.772"/>
						<rect x="-129.104" y="475.142" fill="#FCB73D" width="0.477" height="8.772"/>
						<rect x="-131.169" y="475.142" fill="#FCB73D" width="0.476" height="8.772"/>
						<rect x="-133.234" y="475.142" fill="#FCB73D" width="0.477" height="8.772"/>
						<rect x="-135.3" y="475.142" fill="#FCB73D" width="0.476" height="8.772"/>
						<rect x="-137.365" y="475.142" fill="#FCB73D" width="0.477" height="8.772"/>
						<rect x="-139.431" y="475.142" fill="#FCB73D" width="0.477" height="8.772"/>
						<rect x="-141.497" y="475.142" fill="#FCB73D" width="0.478" height="8.772"/>
						<rect x="-143.562" y="475.142" fill="#FCB73D" width="0.477" height="8.772"/>
						<rect x="-145.627" y="475.142" fill="#FCB73D" width="0.477" height="8.772"/>
					</g>
					<g>
						<rect x="-97.919" y="475.264" fill="#8641A3" width="0.435" height="8.773"/>
						<rect x="-99.8" y="475.264" fill="#8641A3" width="0.434" height="8.773"/>
						<rect x="-101.682" y="475.264" fill="#8641A3" width="0.434" height="8.773"/>
						<rect x="-103.563" y="475.264" fill="#8641A3" width="0.435" height="8.773"/>
						<rect x="-105.446" y="475.264" fill="#8641A3" width="0.434" height="8.773"/>
						<rect x="-107.327" y="475.264" fill="#8641A3" width="0.435" height="8.773"/>
						<rect x="-109.209" y="475.264" fill="#8641A3" width="0.435" height="8.773"/>
						<rect x="-111.09" y="475.264" fill="#8641A3" width="0.434" height="8.773"/>
						<rect x="-112.972" y="475.264" fill="#8641A3" width="0.434" height="8.773"/>
						<rect x="-114.854" y="475.264" fill="#8641A3" width="0.435" height="8.773"/>
						<rect x="-116.736" y="475.264" fill="#8641A3" width="0.435" height="8.773"/>
						<rect x="-118.616" y="475.264" fill="#8641A3" width="0.434" height="8.773"/>
					</g>
					<g>
						<rect x="-132.55" y="485.226" fill="#8641A3" width="0.419" height="8.773"/>
						<rect x="-134.369" y="485.226" fill="#8641A3" width="0.419" height="8.773"/>
						<rect x="-136.188" y="485.226" fill="#8641A3" width="0.42" height="8.773"/>
						<rect x="-138.008" y="485.226" fill="#8641A3" width="0.421" height="8.773"/>
						<rect x="-139.826" y="485.226" fill="#8641A3" width="0.419" height="8.773"/>
						<rect x="-141.645" y="485.226" fill="#8641A3" width="0.419" height="8.773"/>
						<rect x="-143.464" y="485.226" fill="#8641A3" width="0.42" height="8.773"/>
						<rect x="-145.283" y="485.226" fill="#8641A3" width="0.42" height="8.773"/>
						<rect x="-147.103" y="485.226" fill="#8641A3" width="0.42" height="8.773"/>
						<rect x="-148.921" y="485.226" fill="#8641A3" width="0.42" height="8.773"/>
						<rect x="-150.74" y="485.226" fill="#8641A3" width="0.42" height="8.773"/>
						<rect x="-152.559" y="485.226" fill="#8641A3" width="0.42" height="8.773"/>
					</g>
					<g>
						<rect x="-81.238" y="475.264" fill="#3F8DAF" width="0.399" height="8.773"/>
						<rect x="-82.968" y="475.264" fill="#3F8DAF" width="0.399" height="8.773"/>
						<rect x="-84.698" y="475.264" fill="#3F8DAF" width="0.399" height="8.773"/>
						<rect x="-86.428" y="475.264" fill="#3F8DAF" width="0.399" height="8.773"/>
						<rect x="-88.157" y="475.264" fill="#3F8DAF" width="0.399" height="8.773"/>
					</g>
					<g>
						<rect x="-86.247" y="466.041" fill="#FCB73D" width="0.382" height="8.282"/>
						<rect x="-87.904" y="466.041" fill="#FCB73D" width="0.383" height="8.282"/>
						<rect x="-89.563" y="466.041" fill="#FCB73D" width="0.383" height="8.282"/>
						<rect x="-91.22" y="466.041" fill="#FCB73D" width="0.382" height="8.282"/>
						<rect x="-92.878" y="466.041" fill="#FCB73D" width="0.383" height="8.282"/>
						<rect x="-94.536" y="466.041" fill="#FCB73D" width="0.383" height="8.282"/>
						<rect x="-96.193" y="466.041" fill="#FCB73D" width="0.382" height="8.282"/>
						<rect x="-97.852" y="466.041" fill="#FCB73D" width="0.382" height="8.282"/>
						<rect x="-99.51" y="466.041" fill="#FCB73D" width="0.383" height="8.282"/>
						<rect x="-101.168" y="466.041" fill="#FCB73D" width="0.383" height="8.282"/>
					</g>
					<g>
						<rect x="-109.15" y="485.145" fill="#D13B71" width="0.404" height="8.773"/>
						<rect x="-110.9" y="485.145" fill="#D13B71" width="0.404" height="8.773"/>
						<rect x="-112.65" y="485.145" fill="#D13B71" width="0.404" height="8.773"/>
						<rect x="-114.399" y="485.145" fill="#D13B71" width="0.403" height="8.773"/>
						<rect x="-116.149" y="485.145" fill="#D13B71" width="0.404" height="8.773"/>
						<rect x="-117.899" y="485.145" fill="#D13B71" width="0.404" height="8.773"/>
						<rect x="-119.649" y="485.145" fill="#D13B71" width="0.404" height="8.773"/>
						<rect x="-121.399" y="485.145" fill="#D13B71" width="0.404" height="8.773"/>
						<rect x="-123.149" y="485.145" fill="#D13B71" width="0.404" height="8.773"/>
						<rect x="-124.899" y="485.145" fill="#D13B71" width="0.404" height="8.773"/>
						<rect x="-126.647" y="485.145" fill="#D13B71" width="0.403" height="8.773"/>
						<rect x="-128.398" y="485.145" fill="#D13B71" width="0.404" height="8.773"/>
					</g>
					<g>
						<rect x="-111.266" y="465.303" fill="#D13B71" width="0.434" height="8.772"/>
						<rect x="-113.146" y="465.303" fill="#D13B71" width="0.434" height="8.772"/>
						<rect x="-115.025" y="465.303" fill="#D13B71" width="0.434" height="8.772"/>
						<rect x="-116.905" y="465.303" fill="#D13B71" width="0.434" height="8.772"/>
						<rect x="-118.785" y="465.303" fill="#D13B71" width="0.433" height="8.772"/>
						<rect x="-120.665" y="465.303" fill="#D13B71" width="0.433" height="8.772"/>
						<rect x="-122.544" y="465.303" fill="#D13B71" width="0.434" height="8.772"/>
						<rect x="-124.424" y="465.303" fill="#D13B71" width="0.434" height="8.772"/>
						<rect x="-126.304" y="465.303" fill="#D13B71" width="0.434" height="8.772"/>
						<rect x="-128.183" y="465.303" fill="#D13B71" width="0.434" height="8.772"/>
						<rect x="-130.063" y="465.303" fill="#D13B71" width="0.434" height="8.772"/>
						<rect x="-131.943" y="465.303" fill="#D13B71" width="0.434" height="8.772"/>
					</g>
					<g>
						<path fill="#D88623" d="M-82.5,485.351h4.761v8.811H-82.5V485.351z M-77.935,485.583h-4.367v8.345h4.367V485.583z"/>
					</g>
					<rect x="-91.652" y="479.826" fill="#5E2575" width="1.649" height="0.277"/>
					<rect x="-94.781" y="479.826" fill="#5E2575" width="1.649" height="0.277"/>
					<rect x="-92.425" y="475.183" fill="#5E2575" width="0.201" height="8.979"/>
					<rect x="-80.688" y="470.435" fill="#D88623" width="1.486" height="0.254"/>
					<rect x="-83.508" y="470.435" fill="#D88623" width="1.486" height="0.254"/>
					<rect x="-81.385" y="466.173" fill="#D88623" width="0.182" height="8.241"/>
					<rect x="-75.808" y="479.878" fill="#357396" width="1.487" height="0.255"/>
					<rect x="-78.629" y="479.878" fill="#357396" width="1.486" height="0.255"/>
					<rect x="-76.505" y="475.619" fill="#357396" width="0.182" height="8.239"/>
					<rect x="-72.14" y="490.012" fill="#A82064" width="1.487" height="0.261"/>
					<rect x="-74.962" y="490.012" fill="#A82064" width="1.487" height="0.261"/>
					<rect x="-72.838" y="485.637" fill="#A82064" width="0.182" height="8.46"/>
					<rect x="-79.563" y="489.88" fill="#D88623" width="1.254" height="0.261"/>
					<rect x="-81.944" y="489.88" fill="#D88623" width="1.255" height="0.261"/>
					<rect x="-80.152" y="485.505" fill="#D88623" width="0.154" height="8.46"/>
					<rect x="-105.183" y="469.748" fill="#A82064" width="1.255" height="0.245"/>
					<rect x="-107.563" y="469.748" fill="#A82064" width="1.254" height="0.245"/>
					<rect x="-105.771" y="465.611" fill="#A82064" width="0.153" height="8"/>
				</g>
				<polygon fill="#873C4F" points="20.139,479.222 24.652,479.222 26.875,486.698 17.917,486.698 				"/>
				<circle fill="#2D2028" cx="22.295" cy="479.493" r="3.839"/>
				<polygon fill="#C1B399" points="-54.692,485.553 -51.526,485.553 -51.526,493.23 -55.567,493.23 				"/>
				<polygon fill="#C1B399" points="-56.981,461.38 -56.981,459.693 -49.304,459.693 -49.304,461.847 				"/>
				<polygon fill="#ED4A5A" points="-47.328,441.24 -30.983,441.24 -27.75,448.064 -47.328,448.064 				"/>
				<polygon fill="#CE2E45" points="-47.328,441.24 -30.983,441.24 -27.75,448.064 -42.5,448.064 				"/>
				<g>
					<path fill="#661C44" d="M-113.697,469.833c19.473,0,24.852-8.543,25.4-9.521c0.846,0.136,7.114,1.063,13.823,0.02
						c6.646-1.037,15.099-4.272,17.621-13.806l-0.259-0.067c-2.487,9.389-10.832,12.581-17.396,13.605
						c-7.139,1.114-13.771-0.021-13.838-0.032l-0.1-0.017l-0.044,0.091c-0.047,0.097-4.849,9.457-25.205,9.457
						c-0.367,0-0.735-0.003-1.111-0.008c-18.03-0.295-24.043-9.041-24.102-9.129l-0.059-0.09l-0.101,0.037
						c-0.076,0.028-7.642,2.825-17.408,3.023c-9.014,0.18-21.772-1.871-31.479-12.685l-0.2,0.181
						c9.776,10.892,22.641,12.954,31.692,12.772c9.21-0.189,16.474-2.677,17.392-3.005c0.683,0.927,7.062,8.882,24.26,9.163
						C-114.435,469.83-114.063,469.833-113.697,469.833z"/>
				</g>
				<g>
					<path fill="#543535" d="M-190.075,450.13h4.514l0,0c0,0.893-0.724,1.615-1.617,1.615h-1.28
						C-189.351,451.746-190.075,451.023-190.075,450.13L-190.075,450.13z"/>
					<polygon fill="#EADEBE" points="-198.797,474.462 -186.27,476.504 -186.27,478.262 -198.797,478.262 					"/>
					<polygon fill="#EADEBE" points="-193.903,448.223 -190.258,448.223 -191.228,477.358 -199.629,477.615 					"/>
					<polygon fill="#DDD0B3" points="-195.328,475.741 -192.702,450.097 -190.258,449.455 -191.228,477.358 -199.629,477.615 
						-199.292,475.893 					"/>
					<path fill="#EADEBE" d="M-193.536,448.223h5.812c1.399,0,2.532,1.135,2.532,2.532h-8.343V448.223z"/>
					<path fill="#DDD0B3" d="M-187.087,448.315c1.089,0.283,1.895,1.264,1.895,2.44h-7.566l0.056-0.658
						C-189.564,450.445-187.335,449.562-187.087,448.315z"/>
					<circle fill="#543535" cx="-192.477" cy="450.218" r="1.022"/>
					<circle fill="#DDD0B3" cx="-192.477" cy="450.218" r="0.494"/>
				</g>
				<polygon fill="#493341" points="11.395,489.509 -2.534,437.468 -20.664,437.468 -26.411,496.751 				"/>
				<polygon fill="#2D2028" points="-7.477,453.791 -9.429,437.468 -2.534,437.468 11.395,489.509 -26.411,496.751 -21.476,445.839 
					-15.76,445.839 				"/>
				<g>
					<polygon fill="#8C4453" points="-23.927,471.123 -23.455,466.258 5.171,466.258 8.028,476.931 -22.9,476.931 					"/>
					<polygon fill="#8C4453" points="-23.068,462.256 4.1,462.256 4.786,464.822 -23.315,464.822 					"/>
				</g>
				<rect x="-57.364" y="446.057" fill="#DDD0B3" width="10.392" height="14.146"/>
				<rect x="-47.687" y="441.255" fill="#EADEBE" width="0.809" height="5.552"/>
				<rect x="-34.89" y="441.255" fill="#EADEBE" width="0.809" height="5.552"/>
				<rect x="-41.287" y="441.255" fill="#EADEBE" width="0.809" height="5.552"/>
				<polygon fill="#EADEBE" points="-42.225,429.251 -40.858,429.251 -40.858,440.72 -45.89,440.72 				"/>
				<polygon fill="#BCAE91" points="-39.428,426.558 -39.941,426.558 -39.941,440.72 -38.052,440.72 				"/>
				<polygon fill="#BCAE91" points="-37.407,416.253 -37.921,416.253 -37.921,440.72 -36.032,440.72 				"/>
				<polygon fill="#CE2E45" points="-30.471,439.533 -31.253,439.533 -30.57,449.074 -27.692,449.074 				"/>
				<rect x="-52.721" y="446.057" fill="#EADEBE" width="36.037" height="50.694"/>
				<polygon fill="#DDD0B3" points="-52.721,446.057 -16.684,446.057 -16.684,496.751 -36.461,496.751 -52.721,461.353 				"/>
				<polygon fill="#543535" points="-57.898,489.617 -57.898,494.763 -60.378,494.763 -60.378,491.14 -72.572,491.14 
					-72.572,494.763 -75.053,494.763 -75.053,489.617 				"/>
				<polygon fill="#543535" points="-106.124,489.617 -106.124,494.763 -108.605,494.763 -108.605,491.14 -120.797,491.14 
					-120.797,494.763 -123.279,494.763 -123.279,489.617 				"/>
				<polygon fill="#543535" points="-209.513,473.251 -209.513,478.397 -211.995,478.397 -211.995,474.776 -224.187,474.776 
					-224.187,478.397 -226.668,478.397 -226.668,473.251 				"/>
				<polygon fill="#543535" points="-177.856,473.251 -177.856,478.397 -180.337,478.397 -180.337,474.776 -192.53,474.776 
					-192.53,478.397 -195.012,478.397 -195.012,473.251 				"/>
				<path fill="#3C4B56" d="M-172.256,477.372l15.771,15.769h128.967l7.591-7.588h49.893c0,22.337-11.323,31.316-30.362,31.316
					l-13.276,22.399h-172.814c-23.133,0-35.058-40.53-45.905-61.896H-172.256z"/>
				<path fill="#ED4343" d="M-0.97,517.834l-12.703,21.434h-172.814c-11.111,0-19.634-9.35-26.696-21.434H-0.97z"/>
				<g>
					<path fill="#AECED6" d="M-27.301,492.925l0.502-0.504h56.353c-0.092,0.736-0.199,1.456-0.323,2.156h-56.532V492.925z"/>
					<path fill="#AECED6" d="M-222.478,499.247H28.094c-0.117,0.365-0.236,0.725-0.363,1.077h-249.723
						C-222.155,499.964-222.316,499.606-222.478,499.247z"/>
				</g>
				<path opacity="0.4" fill="#603A4C" d="M-18.127,489.501l-7.556,7.59h-130.258l-15.7-15.769h-57.567
					c-0.73,0-1.397-0.421-1.715-1.081c-0.384-0.799-0.766-1.577-1.147-2.33h59.535l15.7,15.769h129.445l7.558-7.59h49.919
					c0,0.738-0.015,1.459-0.041,2.167c-0.027,0.696-0.597,1.244-1.291,1.244H-18.127z"/>
				<path opacity="0.4" fill="#603A4C" d="M-185.944,526.634H-14.71l13.154-12.639c18.032,0,29.072-8.212,30.013-28.443h1.509
					c0,22.337-11.323,31.316-30.362,31.316l-13.276,22.399h-172.814c-23.133,0-35.058-40.53-45.905-61.896h0.932
					C-220.957,499.292-207.876,526.634-185.944,526.634z"/>
				<rect x="-24.314" y="457.267" fill="#DDD0B3" width="11.516" height="2.561"/>
				<rect x="-24.314" y="468.582" fill="#DDD0B3" width="11.516" height="2.56"/>
				<rect x="-24.314" y="479.558" fill="#DDD0B3" width="11.516" height="2.561"/>
				<rect x="-13.571" y="457.267" fill="#DDD0B3" width="0.773" height="29.33"/>
				<path fill="#6CA9BC" d="M-19.028,488.246l-7.591,7.59h-128.968l-15.77-15.77h-59.724c-0.734,0-1.405-0.42-1.723-1.081
					c-0.386-0.799-0.769-1.576-1.152-2.331h61.7l15.771,15.769h128.967l7.591-7.59h51.214c0,0.74-0.015,1.461-0.042,2.167
					c-0.025,0.696-0.598,1.246-1.295,1.246H-19.028z"/>
				<rect x="-47.687" y="438.807" fill="#EADEBE" width="13.606" height="2.787"/>
				<rect x="-56.825" y="448.692" fill="#543535" width="21.824" height="2.245"/>
				<rect x="-56.825" y="453.407" fill="#543535" width="21.824" height="2.245"/>
				<rect x="-56.825" y="449.007" fill="#6CA9BC" width="21.229" height="1.93"/>
				<rect x="-56.825" y="453.721" fill="#6CA9BC" width="21.229" height="1.931"/>
				<rect x="-40.042" y="448.175" fill="#DDD0B3" width="0.605" height="7.779"/>
				<rect x="-44.353" y="448.175" fill="#DDD0B3" width="0.605" height="7.779"/>
				<rect x="-48.663" y="448.175" fill="#DDD0B3" width="0.606" height="7.779"/>
				<rect x="-52.974" y="448.175" fill="#DDD0B3" width="0.606" height="7.779"/>
				<g>
					<rect x="-23.911" y="463.262" fill="#543535" width="3.099" height="1.684"/>
					<rect x="-29.501" y="463.262" fill="#543535" width="3.099" height="1.684"/>
					<rect x="-35.091" y="463.262" fill="#543535" width="3.098" height="1.684"/>
				</g>
				<g>
					<rect x="-23.911" y="470.13" fill="#543535" width="3.099" height="1.684"/>
					<rect x="-29.501" y="470.13" fill="#543535" width="3.099" height="1.684"/>
					<rect x="-35.091" y="470.13" fill="#543535" width="3.098" height="1.684"/>
				</g>
				<g>
					<rect x="-23.911" y="477" fill="#543535" width="3.099" height="1.685"/>
					<rect x="-29.501" y="477" fill="#543535" width="3.099" height="1.685"/>
					<rect x="-35.091" y="477" fill="#543535" width="3.098" height="1.685"/>
				</g>
				<g>
					<rect x="-43.824" y="486.16" fill="#543535" width="1.93" height="1.682"/>
					<rect x="-47.304" y="486.16" fill="#543535" width="1.929" height="1.682"/>
					<rect x="-50.785" y="486.16" fill="#543535" width="1.928" height="1.682"/>
				</g>
				<g>
					<rect x="-50.785" y="482.624" fill="#543535" width="1.928" height="1.684"/>
				</g>
				<rect x="-57.361" y="446.002" fill="#BCAE91" width="40.677" height="0.717"/>
				<rect x="-57.815" y="445.532" fill="#EADEBE" width="41.131" height="0.715"/>
				<g>
					<path fill="#543535" d="M-92.14,459.288h8.531v0.123c0,0.825-0.669,1.493-1.495,1.493h-5.42
						C-91.417,460.904-92.14,460.18-92.14,459.288L-92.14,459.288z"/>
					<polygon fill="#3C7296" points="-94.454,492.355 -74.696,492.355 -68.702,495.835 -94.162,495.835 -95.127,494.262 					"/>
					<g>
						<polygon fill="#EADEBE" points="-89.997,457.845 -85.752,457.845 -83.453,491.889 -92.296,491.889 						"/>
						<polygon fill="#DDD0B3" points="-89.446,465.509 -90.462,464.739 -89.997,457.845 -85.752,457.845 -83.453,491.889 
							-89.553,491.889 						"/>
						<path fill="#EADEBE" d="M-92.733,460.166c0-1.707,1.384-3.092,3.092-3.092h3.534c1.708,0,3.093,1.385,3.093,3.092H-92.733z"/>
						<path fill="#DDD0B3" d="M-90.125,459.76c2.753-0.403,4.919-1.462,5.175-2.461c1.134,0.458,1.935,1.567,1.935,2.865h-9.719
							c0-0.085,0.006-0.17,0.013-0.253C-91.934,459.943-91.051,459.898-90.125,459.76z"/>
						<path fill="#DDD0B3" d="M-91.012,489.678h6.267c2.301,0,4.167,1.864,4.167,4.166v0.476H-95.17v-0.484
							C-95.17,491.54-93.309,489.678-91.012,489.678z"/>
					</g>
					<g>
						<rect x="-84.731" y="492.692" fill="#543535" width="2.829" height="2.693"/>
						<rect x="-93.847" y="492.692" fill="#543535" width="2.829" height="2.693"/>
					</g>
					<g>
						<rect x="-84.11" y="492.54" fill="#DDD0B3" width="1.451" height="1.382"/>
						<rect x="-92.992" y="492.54" fill="#DDD0B3" width="1.451" height="1.382"/>
					</g>
				</g>
				<g>
					<path fill="#543535" d="M-142.432,459.288h8.532l0,0c0,0.893-0.724,1.616-1.616,1.616h-5.298
						C-141.708,460.904-142.432,460.18-142.432,459.288L-142.432,459.288z"/>
					<polygon fill="#3C7296" points="-144.924,492.355 -125.167,492.355 -119.173,495.835 -144.632,495.835 -145.598,494.262 					
						"/>
					<g>
						<polygon fill="#EADEBE" points="-140.468,457.845 -136.223,457.845 -133.923,491.889 -142.768,491.889 						"/>
						<polygon fill="#DDD0B3" points="-139.918,465.509 -140.933,464.739 -140.468,457.845 -136.223,457.845 -133.923,491.889 
							-140.023,491.889 						"/>
						<path fill="#EADEBE" d="M-143.205,460.166c0-1.707,1.384-3.092,3.092-3.092h3.534c1.708,0,3.092,1.385,3.092,3.092H-143.205z"
							/>
						<path fill="#DDD0B3" d="M-140.595,459.76c2.751-0.403,4.917-1.462,5.174-2.461c1.134,0.458,1.935,1.567,1.935,2.865h-9.718
							c0-0.085,0.006-0.17,0.013-0.253C-142.406,459.943-141.522,459.898-140.595,459.76z"/>
						<path fill="#DDD0B3" d="M-141.483,489.678h6.267c2.301,0,4.166,1.864,4.166,4.166v0.476h-14.592v-0.484
							C-145.642,491.54-143.78,489.678-141.483,489.678z"/>
					</g>
					<g>
						<rect x="-135.203" y="492.692" fill="#543535" width="2.829" height="2.693"/>
						<rect x="-144.318" y="492.692" fill="#543535" width="2.83" height="2.693"/>
					</g>
					<g>
						<rect x="-134.582" y="492.54" fill="#DDD0B3" width="1.451" height="1.382"/>
						<rect x="-143.463" y="492.54" fill="#DDD0B3" width="1.451" height="1.382"/>
					</g>
				</g>
				<circle fill="#873C4F" cx="22.295" cy="479.493" r="1.818"/>
				<rect x="-20.781" y="436.863" fill="#BCAE91" width="18.559" height="1.412"/>
				<g>
					<circle fill="#6CA9BC" cx="-215.176" cy="487.394" r="2.335"/>
					<circle fill="#273138" cx="-215.176" cy="487.394" r="1.392"/>
				</g>
				<g>
					<circle fill="#6CA9BC" cx="-204.826" cy="487.394" r="2.335"/>
					<circle fill="#273138" cx="-204.825" cy="487.394" r="1.392"/>
				</g>
				<g>
					<circle fill="#6CA9BC" cx="-194.475" cy="487.394" r="2.335"/>
					<circle fill="#273138" cx="-194.475" cy="487.394" r="1.392"/>
				</g>
				<g>
					<circle fill="#6CA9BC" cx="-184.125" cy="487.394" r="2.335"/>
					<circle fill="#273138" cx="-184.125" cy="487.394" r="1.392"/>
				</g>
			</g>
		</g>
		<g clip-path="url(#SVGID_2_)">
			<polygon fill-rule="evenodd" clip-rule="evenodd" fill="#001966" points="729.438,216.359 744.532,216.359 742.133,228.38 
				731.839,228.38 			"/>
			<polygon fill-rule="evenodd" clip-rule="evenodd" fill="#FFDFE3" points="743.955,219.254 743.672,220.675 730.3,220.675 
				730.016,219.254 			"/>
			<polygon fill-rule="evenodd" clip-rule="evenodd" fill="#FFDFE3" points="729.438,216.359 744.532,216.359 744.249,217.778 
				729.722,217.778 			"/>
			<g>
				<polygon fill-rule="evenodd" clip-rule="evenodd" fill="#F80B3D" points="729.626,217.299 744.345,217.299 744.249,217.778 
					729.722,217.778 				"/>
				<g>
					<path fill-rule="evenodd" clip-rule="evenodd" fill="#F80B3D" d="M730.008,217.387c1.664,0,2.759,3.812,0,3.812
						C727.248,221.199,728.343,217.387,730.008,217.387z"/>
					<path fill-rule="evenodd" clip-rule="evenodd" fill="#F80B3D" d="M730.008,217.798c0.448,0,0.798-0.667,0.673-1.136
						c-0.193,0.025-0.416,0.04-0.673,0.04s-0.481-0.015-0.674-0.04C729.209,217.13,729.559,217.798,730.008,217.798z"/>
				</g>
				<g>
					<path fill-rule="evenodd" clip-rule="evenodd" fill="#F80B3D" d="M743.964,217.387c1.664,0,2.762,3.812,0,3.812
						C741.205,221.199,742.3,217.387,743.964,217.387z"/>
					<path fill-rule="evenodd" clip-rule="evenodd" fill="#F80B3D" d="M743.964,217.798c0.45,0,0.798-0.667,0.673-1.136
						c-0.192,0.025-0.416,0.04-0.673,0.04c-0.256,0-0.479-0.015-0.671-0.04C743.167,217.13,743.516,217.798,743.964,217.798z"/>
				</g>
				<g>
					<path fill-rule="evenodd" clip-rule="evenodd" fill="#F80B3D" d="M734.66,217.387c1.663,0,2.759,3.812,0,3.812
						C731.9,221.199,732.995,217.387,734.66,217.387z"/>
					<path fill-rule="evenodd" clip-rule="evenodd" fill="#F80B3D" d="M734.66,217.798c0.448,0,0.798-0.667,0.672-1.136
						c-0.192,0.025-0.415,0.04-0.672,0.04c-0.256,0-0.48-0.015-0.673-0.04C733.861,217.13,734.211,217.798,734.66,217.798z"/>
				</g>
				<g>
					<path fill-rule="evenodd" clip-rule="evenodd" fill="#F80B3D" d="M739.313,217.387c1.662,0,2.76,3.812,0,3.812
						C736.552,221.199,737.649,217.387,739.313,217.387z"/>
					<path fill-rule="evenodd" clip-rule="evenodd" fill="#F80B3D" d="M739.313,217.798c0.449,0,0.797-0.667,0.671-1.136
						c-0.192,0.025-0.415,0.04-0.671,0.04c-0.257,0-0.48-0.015-0.672-0.04C738.515,217.13,738.863,217.798,739.313,217.798z"/>
				</g>
				<polygon fill-rule="evenodd" clip-rule="evenodd" fill="#F80B3D" points="729.204,216.359 744.768,216.359 744.666,216.837 
					729.308,216.837 				"/>
			</g>
			<path fill-rule="evenodd" clip-rule="evenodd" fill="#FFDFE3" d="M729.858,203.817l-13.897-23.532
				c-11.438-19.374-4.356-41.73,21.025-41.73c25.388,0,32.46,22.361,21.02,41.736l-13.894,23.526H729.858z"/>
			<path fill-rule="evenodd" clip-rule="evenodd" fill="#F80B3D" d="M730.646,203.817l-12.363-23.532
				c-10.175-19.374-3.874-41.73,18.704-41.73c22.584,0,28.876,22.361,18.696,41.736l-12.357,23.526H730.646z"/>
			<path fill-rule="evenodd" clip-rule="evenodd" fill="#FFDFE3" d="M731.788,203.817l-10.134-23.532
				c-8.344-19.374-3.18-41.73,15.332-41.73c18.515,0,23.673,22.361,15.33,41.736l-10.132,23.526H731.788z"/>
			<path fill-rule="evenodd" clip-rule="evenodd" fill="#F80B3D" d="M733.158,203.817l-7.462-23.532
				c-6.142-19.374-2.339-41.73,11.29-41.73c13.634,0,17.43,22.361,11.286,41.736l-7.46,23.526H733.158z"/>
			<path fill-rule="evenodd" clip-rule="evenodd" fill="#FFDFE3" d="M735.396,203.817l-3.098-23.532
				c-2.552-19.374-0.973-41.73,4.688-41.73s7.239,22.361,4.688,41.736l-3.1,23.526H735.396z"/>
			<polygon fill-rule="evenodd" clip-rule="evenodd" fill="#001966" points="729.858,203.817 724.034,193.954 749.938,193.954 
				744.112,203.817 			"/>
			<g>
				<path fill="#FFDFE3" d="M745.198,213.456v-1.549l4.346-17.952h0.229L745.198,213.456L745.198,213.456z M745.198,200.574
					l1.104-6.62h-0.221l-0.884,5.056V200.574z M728.773,211.906l1.107,4.569l-0.38,0.078l-0.728-3.099V211.906L728.773,211.906z
					 M745.198,199.01v1.564l-2.671,15.97l-0.393-0.058L745.198,199.01L745.198,199.01z M745.198,211.906l-1.109,4.569l0.381,0.078
					l0.729-3.098V211.906L745.198,211.906z M728.773,200.574l2.67,15.97l0.392-0.058l-3.062-17.478V200.574L728.773,200.574z
					 M734.218,193.954l1.235,22.552l-0.407,0.016l-1.043-22.568H734.218L734.218,193.954z M739.967,193.954l-1.042,22.568
					l-0.405-0.016l1.235-22.552H739.967z M724.427,193.954l4.347,17.952v1.548l-4.575-19.5H724.427L724.427,193.954z
					 M728.773,199.008l-0.885-5.054h-0.221l1.105,6.62V199.008z"/>
				<path fill-rule="evenodd" clip-rule="evenodd" fill="#FFDFE3" d="M724.017,193.928h25.937c-0.028,0.161-0.055,0.319-0.083,0.48
					h-25.769C724.071,194.247,724.045,194.088,724.017,193.928z"/>
			</g>
		</g>
		<path opacity="0.15" clip-path="url(#SVGID_2_)" fill-rule="evenodd" clip-rule="evenodd" fill="#1A1A1A" d="M744.286,138.08
			c-0.777-0.202-1.578-0.377-2.407-0.524c-0.592-0.104-1.196-0.194-1.813-0.269c-1.494-0.182-3.063-0.277-4.71-0.277l0,0v55.374
			v0.026v0.454v9.409h1.589h0.64l-0.688,12.542h-1.54v0.479v0.461v0.479v1.477v1.419v7.707h4.71h0.437l1.376-6.884l0.064-0.325
			c0.119,0.017,0.252,0.028,0.392,0.028c2.475,0,1.849-3.07,0.491-3.7c0.134-0.186,0.215-0.436,0.207-0.662h0.004l0.102-0.479
			h-0.235h-0.016l1.398-5.96l3.745-15.979l0.01-0.012h0.198c0.029-0.16,0.056-0.319,0.085-0.479l0,0l8.053-13.638
			C766.34,161.878,762.262,142.747,744.286,138.08z M740.066,214.814h-2.763l0.58-12.542h1.3h0.883h0.488h1.142h0.183h0.604
			l0.344-0.581l-0.948,5.417l-1.352,7.706H740.066z M744.286,207.4l-1.796,7.415h-0.611h-0.949l0.949-5.677l1.36-8.143l1.047-1.772
			l3.354-5.683L744.286,207.4z"/>
		<g clip-path="url(#SVGID_2_)">
			<path fill="#F92155" d="M133.822,217.35H96.331C96.331,183.154,133.822,183.164,133.822,217.35z"/>
			<path fill="#F80B3D" d="M112.524,210.593c1.699,2.868,3.954,5.144,6.458,6.757H96.331c0-15.148,7.358-23.569,15.554-25.296
				C108.774,197.077,108.811,204.324,112.524,210.593z"/>
			<rect x="135.225" y="219.799" fill="#C13434" width="1.559" height="34.061"/>
			<rect x="93.368" y="219.799" fill="#C13434" width="1.559" height="34.061"/>
			<rect x="93.368" y="218.909" fill="#C13434" width="43.417" height="4.119"/>
			<polygon fill="#FFE191" points="45.333,476.144 29.079,479.261 18.058,478.537 17.613,483.601 35.537,484.046 			"/>
			<polygon fill="#512E2E" points="217.006,543.436 259.985,543.436 235.758,530.828 224.928,518.301 217.985,502.322 
				209.926,475.151 204.436,498.531 			"/>
			<polygon fill="#512E2E" points="-39.809,527.181 121.688,527.181 30.654,518.69 -16.309,509.335 -43.45,488.131 -82.358,481.189 
				-82.358,503.547 -57.031,510.887 			"/>
			<polygon fill="#3D1E1E" points="-26.535,505.808 8.427,479.569 22.746,464.194 41.865,454.727 60.315,448.904 68.79,445.142 
				65.75,463.115 47.763,461.279 32.164,470.026 20.663,482.75 19.194,498.165 			"/>
			<polygon fill="#3D1E1E" points="-50.792,531.684 121.688,533.422 30.654,524.928 -21.207,523.021 -45.652,505.381 
				-82.358,487.429 -82.358,509.786 -65.229,516.515 			"/>
			<polygon fill="#FFE191" points="56.214,434.375 52.456,440.302 48.324,442.807 49.619,444.144 57.132,443.725 64.146,440.803 			
				"/>
			<polygon fill="#EFE7D0" points="91.365,255.307 141.126,255.307 155.153,435.46 75,437.13 			"/>
			<polygon fill="#FFF8E6" points="144.089,381.145 136.154,381.145 125.492,275.375 138.651,272.586 			"/>
			<g>
				<polygon fill="#F80B3D" points="80.096,380.517 152.917,406.742 155.153,435.46 147.832,435.614 77.418,410.256 				"/>
				<polygon fill="#F80B3D" points="85.024,325.748 148.387,348.564 150.847,380.155 82.348,355.488 				"/>
				<polygon fill="#F80B3D" points="89.916,271.41 143.893,290.848 146.353,322.436 87.238,301.148 				"/>
			</g>
			<rect x="91.921" y="215.569" fill="#F45D5D" width="46.311" height="5.789"/>
			<polygon opacity="0.3" fill="#EADAB5" points="91.365,255.307 141.126,255.307 142.001,266.549 108.564,277.011 108.564,437.463 
				75,437.13 			"/>
			<polygon fill="#512E2E" points="192.391,479.706 191.723,463.677 184.709,459.67 177.695,440.635 175.692,430.285 
				136.062,435.181 106.226,431.842 86.855,435.127 68.376,426.946 54.126,428.951 54.795,444.644 51.789,443.975 45.443,469.021 
				40.434,471.023 32.753,486.05 89.193,508.758 			"/>
			<polygon fill="#633B3B" points="178.809,477.925 176.136,474.14 167.231,471.246 148.306,470.802 109.789,460.115 97.32,459.225 
				85.297,450.989 67.931,452.547 59.637,444.144 48.449,443.975 44.107,467.239 38.319,471.691 28.077,486.83 97.32,511.985 			"/>
			<polygon fill="#512E2E" points="38.319,471.691 44.107,467.239 48.449,443.975 59.637,444.144 67.931,452.547 85.297,450.989 
				89.546,453.9 100.854,481.841 107.724,491.57 106.622,502.679 110.36,506.535 97.32,511.985 28.077,486.83 			"/>
			<polygon fill="#633B3B" points="80.065,451.656 81.846,461.451 76.281,471.246 72.161,477.703 67.82,464.902 63.478,459.781 
				58.58,458.223 58.023,443.753 60.472,443.865 65.565,452.158 			"/>
			<polygon fill="#512E2E" points="218.44,543.436 -82.358,543.436 -82.358,527.074 -55.1,520.729 19.06,481.993 60.472,487.67 
				115.578,485.333 132.276,477.652 190.053,477.318 209.423,471.975 217.263,521.424 			"/>
			<polygon fill="#3D1E1E" points="24.181,484.158 13.811,501.956 0.107,504.036 -18.861,506.765 -31.459,513.212 0.107,505.136 
				16.013,504.036 24.272,494.554 32.164,490.334 44.553,485.939 			"/>
			<polygon fill="#663737" points="156.655,532.133 152.982,516.104 153.983,499.074 175.357,486.718 200.406,481.71 
				207.084,472.622 209.423,471.975 217.263,521.424 218.44,543.436 149.187,543.436 			"/>
			<path fill="#3D1E1E" d="M-82.358,543.408l33.604-20.319l29.723-10.185l74.324-9.796l8.853-12.076l-2.671-3.116l32.034-2.26
				l22.069-0.301l16.699-7.681l50.983-0.295l-16.919,7.976l-47.423,7.681l-25.048,10.351l-1.67,19.034l-12.039,20.986
				C32.443,543.5-82.358,543.408-82.358,543.408z"/>
			<polygon fill="#512E2E" points="76.002,543.436 -47.672,543.436 4.451,527.769 38.771,524.099 50.7,514.924 64.464,509.235 
				65.75,496.573 67.217,490.151 64.832,486.664 94.537,486.668 111.236,485.716 94.203,489.807 88.192,497.153 78.005,503.533 
				69.322,514.384 76.336,524.737 			"/>
			<polygon fill="#FFE191" points="15.72,479.539 18.058,478.537 25.238,481.375 50.454,484.881 67.319,485.55 115.132,484.158 
				115.578,486.162 61.475,487.943 48.616,486.885 22.065,484.881 15.589,485.09 			"/>
			<polygon fill="#FFE191" points="54.297,432.954 52.791,428.197 53.959,426.779 67.736,426.445 86.939,434.542 106.477,431.12 
				108.897,430.87 135.949,434.709 142.378,433.04 158.576,431.788 175.191,428.699 177.445,429.033 178.113,434.792 
				177.906,441.205 174.105,435.71 169.263,434.292 143.297,434.792 133.779,436.378 108.147,433.373 86.688,435.628 
				67.903,428.699 56.715,428.448 			"/>
			<polygon fill="#633B3B" points="201.663,472.804 189.571,476.035 169.265,474.724 179.025,464.833 179.844,455.586 
				179.021,446.099 173.947,435.75 182.711,444.997 191.088,456.915 192.997,462.428 197.969,468.101 			"/>
			<polygon fill="#663737" points="142.239,543.436 99.825,543.436 119.195,528.91 128.38,521.73 132.22,510.21 132.22,497.688 
				136.562,508.708 139.233,523.401 138.398,530.247 140.737,537.425 			"/>
			<polygon fill="#FFE191" points="209.926,475.151 203.579,474.14 178.364,480.374 130.94,479.706 134.279,477.035 
				178.041,476.836 208.516,468.858 210.09,470.466 			"/>
			<polygon fill="#FFE191" points="135.167,479.823 115.578,486.162 61.475,487.943 115.132,484.158 134.279,477.035 			"/>
			<g>
				<polygon fill="#FFE191" points="38.306,471.71 38.319,471.691 39.062,471.121 				"/>
				<polygon fill="#FFE191" points="164.032,476.056 155.211,472.511 136.117,472.654 110.178,460.06 92.867,459.837 
					80.928,451.906 63.228,452.491 58.886,444.226 48.283,444.56 48.324,442.807 61.558,443.307 68.181,451.795 85.548,450.238 
					97.57,458.475 110.039,459.365 148.558,470.05 167.482,470.495 180.089,473.027 185.878,475.699 165.84,478.622 				"/>
			</g>
			<polygon fill="#512E2E" points="42.772,513.049 30.916,520.729 -18.196,521.73 -45.081,533.251 -53.43,543.436 -73.365,543.436 
				-49.139,524.649 -19.199,520.061 30.081,518.726 			"/>
			<ellipse fill="#9B8450" cx="108.342" cy="233.853" rx="5.501" ry="7.932"/>
			<ellipse fill="#846E41" cx="109.927" cy="233.853" rx="4.378" ry="6.313"/>
			<circle fill="#9B8450" cx="115.689" cy="233.853" r="6.457"/>
			<path fill="#9B8450" d="M123.731,252.219c0,3.564-3.601,6.455-8.043,6.455s-8.042-2.891-8.042-6.455
				c0-3.566,3.601-12.773,8.042-12.773S123.731,248.653,123.731,252.219z"/>
			<ellipse fill="#AA8F5B" cx="113.323" cy="233.853" rx="3.924" ry="4.841"/>
			<ellipse fill="#846E41" cx="114.408" cy="233.853" rx="1.103" ry="1.359"/>
			<ellipse fill="#846E41" cx="123.134" cy="233.853" rx="5.502" ry="7.932"/>
			<ellipse fill="#C4AE76" cx="123.843" cy="233.853" rx="5.501" ry="7.932"/>
			<ellipse fill="#AF9761" cx="122.758" cy="233.853" rx="4.091" ry="6.098"/>
			<ellipse fill="#9B8450" cx="122.09" cy="233.853" rx="0.922" ry="1.376"/>
			<rect x="80.386" y="244.622" fill="#663737" width="70.133" height="1.781"/>
			<rect x="81.262" y="251.188" fill="#663737" width="68.38" height="1.781"/>
			<path fill="#663737" d="M87.969,256.198h56.329c0,3.32-2.692,6.011-6.012,6.011H93.979
				C90.66,262.208,87.969,259.518,87.969,256.198z"/>
			<path fill="#F80B3D" d="M82.458,254.547h65.236c0,2.26-1.832,4.09-4.089,4.09H86.548
				C84.29,258.637,82.458,256.807,82.458,254.547z"/>
			<path fill="#FCF4DE" d="M80.343,252.295h69.465c0,1.524-1.236,2.763-2.763,2.763h-63.94
				C81.58,255.058,80.343,253.82,80.343,252.295z"/>
			<rect x="147.656" y="245.373" fill="#663737" width="1.068" height="6.594"/>
			<rect x="142.931" y="245.373" fill="#663737" width="1.069" height="6.594"/>
			<rect x="138.207" y="245.373" fill="#663737" width="1.068" height="6.594"/>
			<rect x="133.482" y="245.373" fill="#663737" width="1.068" height="6.594"/>
			<rect x="128.758" y="245.373" fill="#663737" width="1.068" height="6.594"/>
			<rect x="124.033" y="245.373" fill="#663737" width="1.068" height="6.594"/>
			<rect x="119.308" y="245.373" fill="#663737" width="1.069" height="6.594"/>
			<rect x="114.584" y="245.373" fill="#663737" width="1.067" height="6.594"/>
			<rect x="109.859" y="245.373" fill="#663737" width="1.068" height="6.594"/>
			<rect x="105.135" y="245.373" fill="#663737" width="1.069" height="6.594"/>
			<rect x="100.411" y="245.373" fill="#663737" width="1.067" height="6.594"/>
			<rect x="95.686" y="245.373" fill="#663737" width="1.068" height="6.594"/>
			<rect x="90.96" y="245.373" fill="#663737" width="1.069" height="6.594"/>
			<rect x="86.237" y="245.373" fill="#663737" width="1.068" height="6.594"/>
			<rect x="81.512" y="245.373" fill="#663737" width="1.068" height="6.594"/>
			<polygon fill="#FCF4DE" points="117.971,215.569 131.217,215.569 134.669,221.357 121.421,221.357 			"/>
			<polygon fill="#FCF4DE" points="95.039,215.569 108.285,215.569 111.736,221.357 98.488,221.357 			"/>
			
				<ellipse transform="matrix(-0.5649 0.8251 -0.8251 -0.5649 353.5637 208.8325)" fill="#FF9C9C" cx="121.727" cy="197.627" rx="3.343" ry="6.417"/>
			
				<ellipse transform="matrix(-0.9195 0.393 -0.393 -0.9195 329.1594 342.1304)" fill="#FF9C9C" cx="129.557" cy="204.76" rx="1.307" ry="2.632"/>
		</g>
	</g>
</g>
</svg>
